<svg width="73" height="30" viewBox="0 0 73 30" fill="none" xmlns="http://www.w3.org/2000/svg">
<path d="M0.88 23V0.599998H4.72V19.672H15.6V23H0.88ZM25.5375 23.352C23.9802 23.352 22.5722 23.032 21.3135 22.392C20.0548 21.7307 19.0522 20.76 18.3055 19.48C17.5802 18.1787 17.2175 16.5787 17.2175 14.68V14.04C17.2175 12.248 17.5802 10.7333 18.3055 9.496C19.0522 8.23733 20.0548 7.288 21.3135 6.648C22.5722 6.008 23.9802 5.688 25.5375 5.688C27.1162 5.688 28.5242 6.008 29.7615 6.648C31.0202 7.288 32.0122 8.23733 32.7375 9.496C33.4842 10.7333 33.8575 12.248 33.8575 14.04V14.68C33.8575 16.5787 33.4842 18.1787 32.7375 19.48C32.0122 20.76 31.0202 21.7307 29.7615 22.392C28.5242 23.032 27.1162 23.352 25.5375 23.352ZM25.5375 20.28C26.3482 20.28 27.1162 20.088 27.8415 19.704C28.5668 19.32 29.1535 18.7227 29.6015 17.912C30.0495 17.08 30.2735 16.0027 30.2735 14.68V14.04C30.2735 12.824 30.0495 11.832 29.6015 11.064C29.1535 10.2747 28.5668 9.69867 27.8415 9.336C27.1162 8.952 26.3482 8.76 25.5375 8.76C24.7268 8.76 23.9588 8.952 23.2335 9.336C22.5082 9.69867 21.9215 10.2747 21.4735 11.064C21.0255 11.832 20.8015 12.824 20.8015 14.04V14.68C20.8015 16.0027 21.0255 17.08 21.4735 17.912C21.9215 18.7227 22.5082 19.32 23.2335 19.704C23.9588 20.088 24.7268 20.28 25.5375 20.28ZM44.405 29.752C42.6557 29.752 41.2583 29.5387 40.213 29.112C39.189 28.6853 38.4317 28.088 37.941 27.32C37.4717 26.5733 37.173 25.72 37.045 24.76H40.629C40.7997 25.272 41.141 25.7413 41.653 26.168C42.1863 26.5947 43.1037 26.808 44.405 26.808C46.005 26.808 47.1783 26.424 47.925 25.656C48.6717 24.888 49.045 23.7893 49.045 22.36V19.96C48.5117 20.856 47.7863 21.592 46.869 22.168C45.9517 22.744 44.853 23.032 43.573 23.032C42.1437 23.032 40.885 22.712 39.797 22.072C38.7303 21.432 37.8983 20.4827 37.301 19.224C36.7037 17.9653 36.405 16.3973 36.405 14.52V13.88C36.405 12.1307 36.7037 10.648 37.301 9.432C37.8983 8.216 38.7303 7.288 39.797 6.648C40.885 6.008 42.133 5.688 43.541 5.688C44.949 5.688 46.1543 6.008 47.157 6.648C48.181 7.288 48.8957 8.03467 49.301 8.888V6.04H52.565V22.2C52.565 24.5893 51.8823 26.4453 50.517 27.768C49.1517 29.0907 47.1143 29.752 44.405 29.752ZM44.373 19.96C45.205 19.96 45.973 19.7893 46.677 19.448C47.381 19.0853 47.9463 18.5627 48.373 17.88C48.821 17.176 49.045 16.312 49.045 15.288V13.048C49.045 12.1307 48.821 11.3627 48.373 10.744C47.9463 10.104 47.3703 9.61333 46.645 9.272C45.941 8.93067 45.1837 8.76 44.373 8.76C43.029 8.76 41.9623 9.18667 41.173 10.04C40.3837 10.872 39.989 12.152 39.989 13.88V14.52C39.989 16.3333 40.3943 17.6987 41.205 18.616C42.0157 19.512 43.0717 19.96 44.373 19.96ZM64.4125 23.352C62.8552 23.352 61.4472 23.032 60.1885 22.392C58.9298 21.7307 57.9272 20.76 57.1805 19.48C56.4552 18.1787 56.0925 16.5787 56.0925 14.68V14.04C56.0925 12.248 56.4552 10.7333 57.1805 9.496C57.9272 8.23733 58.9298 7.288 60.1885 6.648C61.4472 6.008 62.8552 5.688 64.4125 5.688C65.9912 5.688 67.3992 6.008 68.6365 6.648C69.8952 7.288 70.8872 8.23733 71.6125 9.496C72.3592 10.7333 72.7325 12.248 72.7325 14.04V14.68C72.7325 16.5787 72.3592 18.1787 71.6125 19.48C70.8872 20.76 69.8952 21.7307 68.6365 22.392C67.3992 23.032 65.9912 23.352 64.4125 23.352ZM64.4125 20.28C65.2232 20.28 65.9912 20.088 66.7165 19.704C67.4418 19.32 68.0285 18.7227 68.4765 17.912C68.9245 17.08 69.1485 16.0027 69.1485 14.68V14.04C69.1485 12.824 68.9245 11.832 68.4765 11.064C68.0285 10.2747 67.4418 9.69867 66.7165 9.336C65.9912 8.952 65.2232 8.76 64.4125 8.76C63.6018 8.76 62.8338 8.952 62.1085 9.336C61.3832 9.69867 60.7965 10.2747 60.3485 11.064C59.9005 11.832 59.6765 12.824 59.6765 14.04V14.68C59.6765 16.0027 59.9005 17.08 60.3485 17.912C60.7965 18.7227 61.3832 19.32 62.1085 19.704C62.8338 20.088 63.6018 20.28 64.4125 20.28Z" fill="black"/>
</svg>
